<svg version="1.2" xmlns="http://www.w3.org/2000/svg" viewBox="0 0 1523 1684" width="1523" height="1684">
	<title>mediatheque_default-svg</title>
	<defs>
		<linearGradient id="g1" x2="1" gradientUnits="userSpaceOnUse" gradientTransform="matrix(1522.539,0,0,1683.92,-4.568,841.991)">
			<stop offset="0" stop-color="#003e5c"/>
			<stop offset=".104" stop-color="#006783"/>
			<stop offset=".235" stop-color="#0097b1"/>
			<stop offset=".3" stop-color="#00aac3"/>
			<stop offset=".5" stop-color="#91be1e"/>
			<stop offset=".566" stop-color="#b6c415"/>
			<stop offset=".646" stop-color="#ddcb0c"/>
			<stop offset=".711" stop-color="#f6d007"/>
			<stop offset=".75" stop-color="#ffd205"/>
			<stop offset="1" stop-color="#ef7d00"/>
		</linearGradient>
	</defs>
	<style>
		.s0 { fill: url(#g1) } 
	</style>
	<g id="Groupe 2253">
		<path id="Tracé 35748" fill-rule="evenodd" class="s0" d="m150.3 361.8c97.9-141.1 236.6-248.8 397.4-308.7 160.9-60 336.2-69.4 502.6-26.8 166.3 42.5 315.6 134.8 428 264.6 30.8 33.7 46.6 78.5 44 124.1-2.7 45.5-23.7 88.1-58.2 118-34.5 29.9-79.6 44.6-125.1 40.8-45.5-3.8-87.5-25.8-116.5-61.1-137.5-159-359.4-215.7-556.3-142.4-197 73.4-327.7 261.5-327.7 471.7 0 210.2 130.7 398.3 327.7 471.6 196.9 73.4 418.8 16.6 556.3-142.3 29.7-32.7 71.1-52.4 115.2-54.9 44.1-2.6 87.4 12.1 120.8 41.1 33.4 28.9 54.1 69.7 57.8 113.7 3.7 44-9.9 87.8-38 121.9-112.4 129.8-261.7 222.1-428 264.6-166.3 42.5-341.7 33.2-502.5-26.8-160.9-59.9-299.6-167.7-397.5-308.7-97.9-141-150.3-308.6-150.3-480.2 0-171.6 52.4-339.2 150.3-480.2zm55.6 921.8c90.1 129.7 217.6 228.8 365.5 283.9 147.9 55.1 309.2 63.7 462.2 24.6 152.9-39.1 290.2-124 393.5-243.4 18-20.3 27.1-47 25.4-74.1-1.8-27-14.4-52.3-34.9-70.1-20.5-17.7-47.3-26.6-74.3-24.5-27.1 2.1-52.2 14.9-69.8 35.6-156 180.3-407.6 244.7-631 161.4-223.5-83.2-371.7-296.6-371.7-535 0-238.5 148.2-451.8 371.7-535 223.4-83.3 475-18.9 631 161.4 17.7 20.4 42.7 32.9 69.6 34.8 26.9 1.9 53.4-6.9 73.8-24.6 20.4-17.6 32.9-42.7 34.8-69.5 1.9-26.9-6.9-53.5-24.6-73.9-103.3-119.3-240.6-204.3-393.6-243.4-152.9-39.1-314.2-30.5-462.1 24.7-147.9 55.1-275.5 154.2-365.5 283.8-90 129.7-138.3 283.8-138.2 441.7-0.1 157.8 48.2 311.9 138.2 441.6z"/>
	</g>
</svg>