<svg viewBox="0 0 640 640" xmlns="http://www.w3.org/2000/svg">
<path d="m160 128c0-35.3 28.7-64 64-64h192c35.3 0 64 28.7 64 64v64h64c35.3 0 64 28.7 64 64v256c0 35.3-28.7 64-64 64h-448c-35.3 0-64-28.7-64-64v-256c0-35.3 28.7-64 64-64h64v-64zm144 288c-17.7 0-32 14.3-32 32v80h96v-80c0-17.7-14.3-32-32-32h-32zm-144 16v-32c0-8.8-7.2-16-16-16h-32c-8.8 0-16 7.2-16 16v32c0 8.8 7.2 16 16 16h32c8.8 0 16-7.2 16-16zm-16-112c8.8 0 16-7.2 16-16v-32c0-8.8-7.2-16-16-16h-32c-8.8 0-16 7.2-16 16v32c0 8.8 7.2 16 16 16h32zm400 112v-32c0-8.8-7.2-16-16-16h-32c-8.8 0-16 7.2-16 16v32c0 8.8 7.2 16 16 16h32c8.8 0 16-7.2 16-16zm-16-112c8.8 0 16-7.2 16-16v-32c0-8.8-7.2-16-16-16h-32c-8.8 0-16 7.2-16 16v32c0 8.8 7.2 16 16 16h32zm-232-152v32h-32c-8.8 0-16 7.2-16 16v16c0 8.8 7.2 16 16 16h32v32c0 8.8 7.2 16 16 16h16c8.8 0 16-7.2 16-16v-32h32c8.8 0 16-7.2 16-16v-16c0-8.8-7.2-16-16-16h-32v-32c0-8.8-7.2-16-16-16h-16c-8.8 0-16 7.2-16 16z" fill="#111827"/>
</svg>
