<svg version="1.1" id="Layer_1" xmlns="http://www.w3.org/2000/svg" xmlns:xlink="http://www.w3.org/1999/xlink" x="0px" y="0px"
	 width="100%" viewBox="0 0 1402 372" enable-background="new 0 0 1402 372" xml:space="preserve">
<path fill="none" 
	d="
M1005.000000,373.000000 
	C670.000000,373.000000 335.500031,373.000000 1.000045,373.000000 
	C1.000030,249.000031 1.000030,125.000053 1.000015,1.000062 
	C468.333282,1.000041 935.666565,1.000041 1403.000000,1.000021 
	C1403.000000,124.999939 1403.000000,248.999878 1403.000000,372.999908 
	C1270.500000,373.000000 1138.000000,373.000000 1005.000000,373.000000 
M662.872742,201.231354 
	C661.587219,199.204269 660.225891,197.220886 659.028870,195.142792 
	C652.598816,183.979904 644.379700,174.423752 633.813782,166.975662 
	C614.572021,153.411865 593.164001,150.038040 570.192383,152.911469 
	C554.612366,154.860321 540.919189,160.485474 529.305786,171.096832 
	C528.808960,171.550735 527.987366,171.649200 526.840942,172.100830 
	C526.840942,127.167763 526.840942,82.746437 526.840942,38.265846 
	C506.095978,38.265846 485.697815,38.265846 465.268616,38.265846 
	C465.268616,136.916763 465.268616,235.302353 465.268616,333.718323 
	C485.603119,333.718323 505.667175,333.718323 526.197815,333.718323 
	C526.197815,327.091949 526.197815,320.735382 526.197815,313.941925 
	C542.092102,329.623779 547.237427,331.036835 559.981018,335.275696 
	C571.670288,339.163818 583.855652,339.817108 596.299438,338.172394 
	C607.212036,336.730072 617.532043,333.575745 626.917358,328.390991 
	C640.123108,321.095612 650.215454,310.116974 658.194885,297.286652 
	C659.894165,294.554321 661.527771,291.781128 663.778809,289.368378 
	C676.288879,313.411743 694.631042,330.728912 721.607910,336.661285 
	C750.969299,343.117981 777.496155,337.073883 800.237183,314.375549 
	C800.237183,321.774597 800.237183,327.820374 800.237183,333.709229 
	C820.739746,333.709229 840.672546,333.709229 861.029907,333.709229 
	C861.029907,314.575104 861.029907,295.725525 861.029907,275.709473 
	C874.437256,306.103943 896.101013,326.165375 926.694885,335.032471 
	C957.210632,343.876953 986.408447,338.378296 1014.292358,323.463684 
	C1006.917847,308.320374 1000.054749,294.227264 993.185913,280.122345 
	C966.262939,294.203308 945.898254,288.486237 933.255188,274.640259 
	C919.275024,259.329895 919.020630,237.946655 927.858948,223.604324 
	C933.043213,215.191635 939.956848,208.337723 949.127502,205.251846 
	C964.263489,200.158615 979.143555,202.185516 992.243896,210.443207 
	C994.505249,208.017044 996.170654,204.583282 998.283020,204.281891 
	C1003.948242,203.473602 1009.804810,204.006180 1016.000183,204.006180 
	C1016.000183,206.338440 1016.000183,208.132996 1016.000183,209.927551 
	C1016.000244,231.092728 1016.130859,252.259064 1015.944275,273.422607 
	C1015.853394,283.732574 1017.340271,293.684784 1020.993713,303.302002 
	C1025.091431,314.088806 1030.737549,323.873413 1040.963501,329.947418 
	C1057.165161,339.570923 1074.782715,340.709778 1092.885376,337.504761 
	C1098.299194,336.546295 1103.564819,333.775085 1108.928955,333.686127 
	C1128.379639,333.363647 1147.843384,333.831024 1167.302246,333.982025 
	C1168.084351,333.988098 1168.867920,333.807709 1170.235840,333.644318 
	C1170.235840,286.471924 1170.235840,239.533264 1170.235840,192.072952 
	C1171.112671,192.807663 1171.456543,192.967239 1171.599976,193.234421 
	C1186.703369,221.344528 1201.799438,249.458527 1216.878174,277.581879 
	C1226.390991,295.324493 1235.805908,313.120544 1245.496704,330.765228 
	C1246.354370,332.326874 1248.908936,333.808167 1250.715332,333.857117 
	C1261.373291,334.145935 1272.059570,333.652039 1282.702026,334.151642 
	C1287.744629,334.388367 1290.041260,332.241272 1292.008789,328.220154 
	C1295.893188,320.281250 1299.939209,312.415497 1304.129272,304.633087 
	C1320.034180,275.093506 1336.019897,245.597504 1351.982300,216.088898 
	C1358.605469,203.845184 1365.300781,191.640198 1371.858032,179.361359 
	C1375.683960,172.197327 1379.301636,164.922073 1383.180908,157.369904 
	C1382.099609,157.199524 1381.492676,157.020676 1380.885620,157.020218 
	C1358.387207,157.003601 1335.888428,156.950043 1313.391357,157.124313 
	C1311.931763,157.135635 1309.780151,158.583633 1309.146606,159.927353 
	C1304.557129,169.660828 1300.333618,179.565735 1295.884033,189.366348 
	C1287.448853,207.945297 1278.937622,226.489670 1270.465576,245.051849 
	C1269.597778,246.953018 1268.781494,248.877731 1267.708496,251.321686 
	C1265.297119,246.187408 1263.220459,241.932144 1261.283447,237.614227 
	C1249.924561,212.293427 1238.525024,186.990189 1227.343872,161.590958 
	C1225.757690,157.987701 1223.793945,156.892624 1219.909912,156.905228 
	C1174.246948,157.053467 1128.583374,157.000381 1082.919922,157.000381 
	C1081.006226,157.000381 1079.092651,157.000381 1076.813477,157.000381 
	C1076.813477,134.613205 1076.813477,113.011826 1076.813477,91.346512 
	C1056.384766,91.346512 1036.334473,91.346512 1015.733398,91.346512 
	C1015.733398,113.410324 1015.733398,135.132095 1015.733398,156.830276 
	C1006.689697,156.830276 997.825562,158.406998 989.788940,156.498718 
	C973.567078,152.646896 957.533325,150.989105 940.957153,152.910156 
	C919.794922,155.362686 902.119263,164.695236 886.638977,178.853149 
	C875.486328,189.053116 866.886780,201.019730 860.921753,215.119583 
	C860.921753,195.910355 860.921753,176.701111 860.921753,157.305084 
	C840.466614,157.305084 820.416199,157.305084 799.962524,157.305084 
	C799.962524,162.500900 799.962524,167.406464 799.962524,172.189026 
	C799.406494,172.331299 799.195801,172.453384 799.113159,172.394806 
	C798.707031,172.107147 798.325867,171.781693 797.952148,171.451263 
	C783.618347,158.777481 766.708130,152.627090 747.753601,152.079712 
	C741.668152,151.903961 735.540833,152.496536 729.458191,153.028625 
	C712.562195,154.506653 698.155396,161.399109 685.592590,172.781235 
	C676.317627,181.184555 669.513000,191.318726 662.872742,201.231354 
M123.323822,314.881622 
	C144.142288,336.484528 169.560028,342.387848 198.369202,337.032043 
	C227.357437,331.642944 246.053986,313.327332 259.423096,288.325500 
	C269.428680,308.850372 283.905151,324.947449 305.044037,332.715759 
	C338.245850,344.917114 369.245178,340.668915 396.315063,314.658417 
	C396.315063,321.754120 396.315063,327.833130 396.315063,333.627411 
	C416.787048,333.627411 436.852112,333.627411 456.630615,333.627411 
	C456.630615,274.534058 456.630615,215.812225 456.630615,157.203522 
	C436.314545,157.203522 416.368347,157.203522 395.978699,157.203522 
	C395.978699,162.428802 395.978699,167.470215 395.978699,172.882645 
	C373.622772,153.623337 348.402405,148.935684 320.373474,153.765564 
	C291.137726,158.803421 273.333893,177.617706 259.133911,202.097626 
	C245.796555,177.329819 227.453812,159.130569 198.674210,153.889618 
	C170.917908,148.835037 145.503586,152.957016 122.919548,172.769119 
	C122.919548,127.207359 122.919548,82.702461 122.919548,38.326656 
	C101.970329,38.326656 81.572945,38.326656 61.310436,38.326656 
	C61.310436,137.031998 61.310436,235.411163 61.310436,333.677979 
	C81.686615,333.677979 101.750908,333.677979 121.588623,333.677979 
	C121.995308,327.011383 122.381699,320.677399 123.323822,314.881622 
M1118.018921,113.523697 
	C1122.046753,115.542328 1125.882812,118.201317 1130.133789,119.474823 
	C1156.108398,127.256012 1182.581909,104.806381 1175.695312,75.828125 
	C1171.254272,57.140335 1152.077271,43.716705 1131.058350,49.455917 
	C1117.626099,53.123600 1108.590210,61.691673 1105.117188,75.097618 
	C1101.233154,90.090546 1105.254883,103.026909 1118.018921,113.523697 
z"/>
<path fill="#1CABB0" opacity="1.000000" stroke="none" 
	d="
M663.159973,201.884201 
	C669.513000,191.318726 676.317627,181.184555 685.592590,172.781235 
	C698.155396,161.399109 712.562195,154.506653 729.458191,153.028625 
	C735.540833,152.496536 741.668152,151.903961 747.753601,152.079712 
	C766.708130,152.627090 783.618347,158.777481 797.952148,171.451263 
	C798.325867,171.781693 798.707031,172.107147 799.113159,172.394806 
	C799.195801,172.453384 799.406494,172.331299 799.962524,172.189026 
	C799.962524,167.406464 799.962524,162.500900 799.962524,157.305084 
	C820.416199,157.305084 840.466614,157.305084 860.921753,157.305084 
	C860.921753,176.701111 860.921753,195.910355 860.921753,215.119583 
	C866.886780,201.019730 875.486328,189.053116 886.638977,178.853149 
	C902.119263,164.695236 919.794922,155.362686 940.957153,152.910156 
	C957.533325,150.989105 973.567078,152.646896 989.788940,156.498718 
	C997.825562,158.406998 1006.689697,156.830276 1015.733398,156.830276 
	C1015.733398,135.132095 1015.733398,113.410324 1015.733398,91.346512 
	C1036.334473,91.346512 1056.384766,91.346512 1076.813477,91.346512 
	C1076.813477,113.011826 1076.813477,134.613205 1076.813477,157.000381 
	C1079.092651,157.000381 1081.006226,157.000381 1082.919922,157.000381 
	C1128.583374,157.000381 1174.246948,157.053467 1219.909912,156.905228 
	C1223.793945,156.892624 1225.757690,157.987701 1227.343872,161.590958 
	C1238.525024,186.990189 1249.924561,212.293427 1261.283447,237.614227 
	C1263.220459,241.932144 1265.297119,246.187408 1267.708496,251.321686 
	C1268.781494,248.877731 1269.597778,246.953018 1270.465576,245.051849 
	C1278.937622,226.489670 1287.448853,207.945297 1295.884033,189.366348 
	C1300.333618,179.565735 1304.557129,169.660828 1309.146606,159.927353 
	C1309.780151,158.583633 1311.931763,157.135635 1313.391357,157.124313 
	C1335.888428,156.950043 1358.387207,157.003601 1380.885620,157.020218 
	C1381.492676,157.020676 1382.099609,157.199524 1383.180908,157.369904 
	C1379.301636,164.922073 1375.683960,172.197327 1371.858032,179.361359 
	C1365.300781,191.640198 1358.605469,203.845184 1351.982300,216.088898 
	C1336.019897,245.597504 1320.034180,275.093506 1304.129272,304.633087 
	C1299.939209,312.415497 1295.893188,320.281250 1292.008789,328.220154 
	C1290.041260,332.241272 1287.744629,334.388367 1282.702026,334.151642 
	C1272.059570,333.652039 1261.373291,334.145935 1250.715332,333.857117 
	C1248.908936,333.808167 1246.354370,332.326874 1245.496704,330.765228 
	C1235.805908,313.120544 1226.390991,295.324493 1216.878174,277.581879 
	C1201.799438,249.458527 1186.703369,221.344528 1171.599976,193.234421 
	C1171.456543,192.967239 1171.112671,192.807663 1170.235840,192.072952 
	C1170.235840,239.533264 1170.235840,286.471924 1170.235840,333.644318 
	C1168.867920,333.807709 1168.084351,333.988098 1167.302246,333.982025 
	C1147.843384,333.831024 1128.379639,333.363647 1108.928955,333.686127 
	C1103.564819,333.775085 1098.299194,336.546295 1092.885376,337.504761 
	C1074.782715,340.709778 1057.165161,339.570923 1040.963501,329.947418 
	C1030.737549,323.873413 1025.091431,314.088806 1020.993713,303.302002 
	C1017.340271,293.684784 1015.853394,283.732574 1015.944275,273.422607 
	C1016.130859,252.259064 1016.000244,231.092728 1016.000183,209.927551 
	C1016.000183,208.132996 1016.000183,206.338440 1016.000183,204.006180 
	C1009.804810,204.006180 1003.948242,203.473602 998.283020,204.281891 
	C996.170654,204.583282 994.505249,208.017044 992.243896,210.443207 
	C979.143555,202.185516 964.263489,200.158615 949.127502,205.251846 
	C939.956848,208.337723 933.043213,215.191635 927.858948,223.604324 
	C919.020630,237.946655 919.275024,259.329895 933.255188,274.640259 
	C945.898254,288.486237 966.262939,294.203308 993.185913,280.122345 
	C1000.054749,294.227264 1006.917847,308.320374 1014.292358,323.463684 
	C986.408447,338.378296 957.210632,343.876953 926.694885,335.032471 
	C896.101013,326.165375 874.437256,306.103943 861.029907,275.709473 
	C861.029907,295.725525 861.029907,314.575104 861.029907,333.709229 
	C840.672546,333.709229 820.739746,333.709229 800.237183,333.709229 
	C800.237183,327.820374 800.237183,321.774597 800.237183,314.375549 
	C777.496155,337.073883 750.969299,343.117981 721.607910,336.661285 
	C694.631042,330.728912 676.288879,313.411743 663.410706,288.804779 
	C662.628723,286.658997 662.349182,285.026733 661.780701,283.502167 
	C653.192383,260.469147 652.301086,237.215271 659.647705,213.696884 
	C660.872498,209.776199 661.991882,205.822601 663.159973,201.884201 
M720.067017,251.020767 
	C720.372803,251.949463 720.856323,252.859390 720.956543,253.809769 
	C721.817749,261.975189 725.590576,268.844452 731.156494,274.524933 
	C740.986877,284.557587 753.531677,287.645355 766.966370,285.756165 
	C776.576721,284.404694 785.204224,280.285706 791.504089,272.119873 
	C796.330322,265.864197 799.110413,259.188843 800.209656,251.275391 
	C802.266541,236.467834 797.805664,224.441681 786.991455,214.461014 
	C778.254211,206.397247 767.773010,204.137253 756.274414,204.985001 
	C742.482422,206.001831 732.317200,213.027222 725.345459,224.478867 
	C720.637451,232.211899 719.413818,241.070023 720.067017,251.020767 
M1106.652954,280.171539 
	C1107.244751,281.871826 1107.836548,283.572083 1108.670044,285.966858 
	C1108.670044,258.155426 1108.670044,231.234528 1108.670044,204.393280 
	C1097.950439,204.393280 1087.564819,204.393280 1078.003784,204.393280 
	C1078.003784,226.040497 1077.515869,247.306442 1078.224854,268.532410 
	C1078.544312,278.095398 1082.705811,284.375732 1093.717651,282.873016 
	C1096.999268,282.425171 1100.053955,280.440918 1103.277100,279.351715 
	C1104.112793,279.069366 1105.192139,279.507935 1106.652954,280.171539 
z"/>
<path fill="#D9D9D9" opacity="1.000000" stroke="none" 
	d="
M123.045959,314.612549 
	C122.381699,320.677399 121.995308,327.011383 121.588623,333.677979 
	C101.750908,333.677979 81.686615,333.677979 61.310436,333.677979 
	C61.310436,235.411163 61.310436,137.031998 61.310436,38.326656 
	C81.572945,38.326656 101.970329,38.326656 122.919548,38.326656 
	C122.919548,82.702461 122.919548,127.207359 122.919548,172.769119 
	C145.503586,152.957016 170.917908,148.835037 198.674210,153.889618 
	C227.453812,159.130569 245.796555,177.329819 259.133911,202.097626 
	C273.333893,177.617706 291.137726,158.803421 320.373474,153.765564 
	C348.402405,148.935684 373.622772,153.623337 395.978699,172.882645 
	C395.978699,167.470215 395.978699,162.428802 395.978699,157.203522 
	C416.368347,157.203522 436.314545,157.203522 456.630615,157.203522 
	C456.630615,215.812225 456.630615,274.534058 456.630615,333.627411 
	C436.852112,333.627411 416.787048,333.627411 396.315063,333.627411 
	C396.315063,327.833130 396.315063,321.754120 396.315063,314.658417 
	C369.245178,340.668915 338.245850,344.917114 305.044037,332.715759 
	C283.905151,324.947449 269.428680,308.850372 259.423096,288.325500 
	C246.053986,313.327332 227.357437,331.642944 198.369202,337.032043 
	C169.560028,342.387848 144.142288,336.484528 123.045959,314.612549 
M319.001892,229.642609 
	C312.396271,245.565018 316.863159,267.664673 331.568909,278.241211 
	C347.974335,290.040161 371.549652,288.750549 385.261536,274.938171 
	C398.131226,261.974121 401.130432,241.401932 390.992035,223.994370 
	C381.828278,208.260208 364.048615,202.264191 347.541992,205.720398 
	C333.985504,208.558899 325.027893,216.807755 319.001892,229.642609 
M195.945374,222.718857 
	C194.217346,220.566925 192.633575,218.277435 190.735840,216.287354 
	C183.283218,208.472031 174.014816,205.200745 163.295959,204.899048 
	C152.380829,204.591827 142.678101,207.304733 134.693771,214.863220 
	C125.159256,223.889191 121.166153,234.990707 121.872192,248.210022 
	C122.419868,258.464325 125.704117,267.264801 132.952484,274.375031 
	C142.774338,284.009674 154.956238,287.688293 168.337021,285.816742 
	C177.213760,284.575195 185.256271,281.104248 191.761566,273.960510 
	C199.244278,265.743439 202.486435,256.127533 202.463318,245.681488 
	C202.446304,237.990906 201.654938,229.831421 195.945374,222.718857 
z"/>
<path fill="#D9D9D9" opacity="1.000000" stroke="none" 
	d="
M663.016357,201.557770 
	C661.991882,205.822601 660.872498,209.776199 659.647705,213.696884 
	C652.301086,237.215271 653.192383,260.469147 661.780701,283.502167 
	C662.349182,285.026733 662.628723,286.658997 663.117126,288.633972 
	C661.527771,291.781128 659.894165,294.554321 658.194885,297.286652 
	C650.215454,310.116974 640.123108,321.095612 626.917358,328.390991 
	C617.532043,333.575745 607.212036,336.730072 596.299438,338.172394 
	C583.855652,339.817108 571.670288,339.163818 559.981018,335.275696 
	C547.237427,331.036835 542.092102,329.623779 526.197815,313.941925 
	C526.197815,320.735382 526.197815,327.091949 526.197815,333.718323 
	C505.667175,333.718323 485.603119,333.718323 465.268616,333.718323 
	C465.268616,235.302353 465.268616,136.916763 465.268616,38.265846 
	C485.697815,38.265846 506.095978,38.265846 526.840942,38.265846 
	C526.840942,82.746437 526.840942,127.167763 526.840942,172.100830 
	C527.987366,171.649200 528.808960,171.550735 529.305786,171.096832 
	C540.919189,160.485474 554.612366,154.860321 570.192383,152.911469 
	C593.164001,150.038040 614.572021,153.411865 633.813782,166.975662 
	C644.379700,174.423752 652.598816,183.979904 659.028870,195.142792 
	C660.225891,197.220886 661.587219,199.204269 663.016357,201.557770 
M539.045044,276.567291 
	C540.230408,277.405670 541.394470,278.276306 542.604431,279.077545 
	C558.515991,289.614685 577.716248,288.004669 590.188049,279.053650 
	C610.085510,264.773285 611.706909,234.085831 595.241821,216.737823 
	C587.819397,208.917328 578.713013,205.379959 567.955933,204.913055 
	C549.909973,204.129807 537.704590,211.828796 530.201660,225.849197 
	C522.145691,240.902954 523.995422,263.390900 539.045044,276.567291 
z"/>
<path fill="#1CABB0" opacity="1.000000" stroke="none" 
	d="
M1117.764404,113.265831 
	C1105.254883,103.026909 1101.233154,90.090546 1105.117188,75.097618 
	C1108.590210,61.691673 1117.626099,53.123600 1131.058350,49.455917 
	C1152.077271,43.716705 1171.254272,57.140335 1175.695312,75.828125 
	C1182.581909,104.806381 1156.108398,127.256012 1130.133789,119.474823 
	C1125.882812,118.201317 1122.046753,115.542328 1117.764404,113.265831 
z"/>
<path fill="none" 
	d="
M720.039062,250.566437 
	C719.413818,241.070023 720.637451,232.211899 725.345459,224.478867 
	C732.317200,213.027222 742.482422,206.001831 756.274414,204.985001 
	C767.773010,204.137253 778.254211,206.397247 786.991455,214.461014 
	C797.805664,224.441681 802.266541,236.467834 800.209656,251.275391 
	C799.110413,259.188843 796.330322,265.864197 791.504089,272.119873 
	C785.204224,280.285706 776.576721,284.404694 766.966370,285.756165 
	C753.531677,287.645355 740.986877,284.557587 731.156494,274.524933 
	C725.590576,268.844452 721.817749,261.975189 720.956543,253.809769 
	C720.856323,252.859390 720.372803,251.949463 720.039062,250.566437 
z"/>
<path fill="none" 
	d="
M1106.406250,279.893433 
	C1105.192139,279.507935 1104.112793,279.069366 1103.277100,279.351715 
	C1100.053955,280.440918 1096.999268,282.425171 1093.717651,282.873016 
	C1082.705811,284.375732 1078.544312,278.095398 1078.224854,268.532410 
	C1077.515869,247.306442 1078.003784,226.040497 1078.003784,204.393280 
	C1087.564819,204.393280 1097.950439,204.393280 1108.670044,204.393280 
	C1108.670044,231.234528 1108.670044,258.155426 1108.670044,285.966858 
	C1107.836548,283.572083 1107.244751,281.871826 1106.406250,279.893433 
z"/>
<path fill="none" 
	d="
M319.017548,229.240784 
	C325.027893,216.807755 333.985504,208.558899 347.541992,205.720398 
	C364.048615,202.264191 381.828278,208.260208 390.992035,223.994370 
	C401.130432,241.401932 398.131226,261.974121 385.261536,274.938171 
	C371.549652,288.750549 347.974335,290.040161 331.568909,278.241211 
	C316.863159,267.664673 312.396271,245.565018 319.017548,229.240784 
z"/>
<path fill="none" 
	d="
M195.961395,223.093536 
	C201.654938,229.831421 202.446304,237.990906 202.463318,245.681488 
	C202.486435,256.127533 199.244278,265.743439 191.761566,273.960510 
	C185.256271,281.104248 177.213760,284.575195 168.337021,285.816742 
	C154.956238,287.688293 142.774338,284.009674 132.952484,274.375031 
	C125.704117,267.264801 122.419868,258.464325 121.872192,248.210022 
	C121.166153,234.990707 125.159256,223.889191 134.693771,214.863220 
	C142.678101,207.304733 152.380829,204.591827 163.295959,204.899048 
	C174.014816,205.200745 183.283218,208.472031 190.735840,216.287354 
	C192.633575,218.277435 194.217346,220.566925 195.961395,223.093536 
z"/>
<path fill="none" 
	d="
M538.796265,276.299377 
	C523.995422,263.390900 522.145691,240.902954 530.201660,225.849197 
	C537.704590,211.828796 549.909973,204.129807 567.955933,204.913055 
	C578.713013,205.379959 587.819397,208.917328 595.241821,216.737823 
	C611.706909,234.085831 610.085510,264.773285 590.188049,279.053650 
	C577.716248,288.004669 558.515991,289.614685 542.604431,279.077545 
	C541.394470,278.276306 540.230408,277.405670 538.796265,276.299377 
z"/>
</svg>