<svg version="1.1" id="Layer_1" xmlns="http://www.w3.org/2000/svg" xmlns:xlink="http://www.w3.org/1999/xlink" x="0px" y="0px"
	 width="100%" viewBox="0 0 1416 403" enable-background="new 0 0 1416 403" xml:space="preserve">
<path fill="none"
	d="
M1008.000000,404.000000 
	C672.000000,404.000000 336.500031,404.000000 1.000045,404.000000 
	C1.000030,269.666687 1.000030,135.333389 1.000015,1.000063 
	C472.999969,1.000042 944.999939,1.000042 1417.000000,1.000021 
	C1417.000000,135.333267 1417.000000,269.666534 1417.000000,403.999908 
	C1280.833374,404.000000 1144.666626,404.000000 1008.000000,404.000000 
M661.889893,212.239502 
	C660.726379,210.437027 659.462830,208.690659 658.415649,206.822952 
	C651.864258,195.137985 643.327698,185.254272 632.264771,177.603775 
	C621.017273,169.825668 608.659912,165.316223 595.019470,163.773010 
	C576.312134,161.656555 558.330566,163.231140 541.677307,172.717545 
	C536.495056,175.669556 531.631714,179.181335 525.937622,182.881866 
	C525.937622,138.108292 525.937622,93.887512 525.937622,49.343307 
	C505.102509,49.343307 484.885376,49.343307 464.496704,49.343307 
	C464.496704,148.012253 464.496704,246.338959 464.496704,344.498962 
	C484.883209,344.498962 504.770416,344.498962 525.285583,344.498962 
	C525.285583,337.986572 525.285583,331.969147 525.285583,326.116272 
	C531.512512,330.811462 536.994812,335.938599 543.343567,339.537170 
	C559.356750,348.613800 576.629456,351.572662 595.025635,349.109619 
	C613.992798,346.570099 630.717224,339.408905 643.661987,325.379608 
	C650.718140,317.732330 655.955444,308.406860 662.628723,300.196899 
	C671.770264,317.665924 684.132629,332.109192 702.079224,340.961151 
	C717.749084,348.690125 734.264832,351.517395 751.760315,349.121399 
	C762.599670,347.636932 772.907654,344.999298 782.057251,338.930450 
	C787.739197,335.161713 793.081055,330.880310 799.150940,326.404816 
	C799.150940,332.761475 799.150940,338.784882 799.150940,344.719940 
	C819.707886,344.719940 839.638916,344.719940 860.121582,344.719940 
	C860.121582,325.658630 860.121582,306.868591 860.121582,286.823761 
	C873.555420,317.531982 895.556641,337.503754 926.117493,346.233582 
	C956.367798,354.874725 985.579102,349.477112 1013.303833,334.391907 
	C1005.942017,319.316376 999.067505,305.238800 992.187622,291.150269 
	C965.828125,304.934570 943.308594,300.426392 928.806946,281.459717 
	C919.638367,269.468201 918.429810,247.717667 926.839844,234.578888 
	C932.164795,226.259842 938.967773,219.341812 948.139954,216.250443 
	C963.277405,211.148544 978.147522,213.212204 991.248047,221.434937 
	C993.512817,219.011185 995.180359,215.583466 997.293518,215.282318 
	C1002.957458,214.475143 1008.812195,215.007034 1015.000305,215.007034 
	C1015.000305,217.350540 1015.000305,219.150375 1015.000305,220.950211 
	C1015.000366,242.115646 1015.133484,263.282288 1014.943298,284.446014 
	C1014.850647,294.757263 1016.348267,304.708282 1019.999756,314.322601 
	C1024.096069,325.108185 1029.750122,334.880615 1039.983887,340.954254 
	C1056.192261,350.573883 1073.805298,351.708038 1091.904053,348.494080 
	C1097.173218,347.558350 1102.284058,344.758179 1107.499390,344.668182 
	C1126.104614,344.347168 1144.723511,344.825806 1163.337280,344.997406 
	C1165.106323,345.013733 1166.875488,344.999603 1169.083374,344.999603 
	C1169.083374,297.501526 1169.083374,250.629105 1169.083374,202.765686 
	C1170.169312,203.963806 1170.670044,204.338608 1170.938965,204.838150 
	C1183.277588,227.764664 1195.618652,250.689987 1207.910400,273.641693 
	C1220.046631,296.303009 1232.172729,318.970245 1244.180786,341.699585 
	C1245.544678,344.281464 1247.168701,345.102264 1249.999390,345.061920 
	C1260.829956,344.907501 1271.672485,344.751740 1282.492432,345.125031 
	C1286.656494,345.268707 1288.694702,343.684174 1290.398071,340.254486 
	C1294.481689,332.032043 1298.720581,323.882812 1303.066406,315.795166 
	C1319.111816,285.934631 1335.218994,256.107208 1351.318115,226.275558 
	C1357.857056,214.158691 1364.470093,202.081772 1370.982178,189.950531 
	C1374.753906,182.924210 1378.391846,175.825974 1382.327148,168.306778 
	C1380.937622,168.163712 1380.169556,168.016006 1379.401611,168.015533 
	C1357.069580,168.001770 1334.737183,167.949066 1312.406494,168.123962 
	C1310.942383,168.135437 1308.782104,169.570358 1308.146484,170.912018 
	C1302.556885,182.712463 1297.193237,194.621185 1291.855713,206.539505 
	C1287.051636,217.266205 1282.421509,228.070892 1277.606934,238.792770 
	C1274.147705,246.496445 1270.510864,254.120331 1266.787598,262.136322 
	C1264.441895,257.273315 1262.223999,252.951187 1260.243164,248.522934 
	C1249.039917,223.477615 1237.831055,198.434387 1226.792114,173.316620 
	C1225.037598,169.324677 1222.847046,167.847733 1218.266846,167.869568 
	C1172.937134,168.085739 1127.605957,168.000351 1082.275269,168.000351 
	C1080.328369,168.000351 1078.381592,168.000366 1075.879517,168.000366 
	C1075.879517,145.738998 1075.879517,124.017807 1075.879517,102.411789 
	C1055.262817,102.411789 1035.213257,102.411789 1014.781860,102.411789 
	C1014.781860,124.421471 1014.781860,146.021591 1014.781860,167.768494 
	C1005.772583,167.768494 996.786865,169.332748 988.602051,167.437561 
	C972.371643,163.679413 956.336365,161.978363 939.761841,163.912170 
	C919.324524,166.296692 902.077209,175.192703 886.945251,188.612289 
	C875.274719,198.962143 866.146484,211.227798 859.893433,225.869278 
	C859.893433,206.696442 859.893433,187.523605 859.893433,168.383575 
	C839.315613,168.383575 819.265442,168.383575 798.744568,168.383575 
	C798.744568,173.635086 798.744568,178.507538 798.744568,183.749054 
	C785.094360,172.346207 778.457703,169.084351 760.494568,164.780563 
	C749.743530,162.204727 738.958923,162.676590 728.066956,163.931396 
	C711.909424,165.792770 697.898071,172.102280 685.696228,182.768845 
	C675.914734,191.319504 668.622864,201.765015 661.889893,212.239502 
M455.998749,325.499451 
	C455.998749,273.227203 455.998749,220.954941 455.998749,168.343536 
	C435.449219,168.343536 415.564636,168.343536 394.859589,168.343536 
	C394.859589,173.448547 394.859589,178.253296 394.859589,183.767914 
	C372.132324,164.405258 346.885345,159.760681 319.171753,164.798676 
	C290.504578,170.010025 272.131561,188.325302 258.121674,213.139175 
	C244.523758,187.742905 225.838455,169.834778 197.374359,164.722733 
	C169.811142,159.772476 144.241074,163.869949 122.000443,183.774673 
	C122.000443,181.400574 122.000450,180.079620 122.000435,178.758652 
	C121.999779,137.264481 121.945587,95.770142 122.081802,54.276421 
	C122.095337,50.154312 120.945404,48.859287 116.764008,48.913731 
	C100.102516,49.130661 83.436523,48.999020 66.772202,49.003494 
	C60.015476,49.005306 60.005428,49.013531 60.005207,55.745201 
	C60.002705,131.067947 60.003361,206.390686 60.003597,281.713440 
	C60.003662,301.210693 60.087097,320.708588 59.933529,340.204620 
	C59.904575,343.879669 60.949493,345.110535 64.721786,345.072296 
	C82.050903,344.896606 99.383202,344.931641 116.713310,345.047516 
	C119.932205,345.069000 121.188484,344.067291 121.047562,340.770081 
	C120.838203,335.871643 120.993340,330.957672 120.993340,324.781189 
	C142.638947,346.761078 167.776779,353.468414 196.356781,348.303192 
	C225.415283,343.051483 244.844208,325.214081 258.154877,299.474426 
	C272.090057,325.000183 290.939362,342.831940 319.898468,348.202057 
	C348.348969,353.477875 373.129852,346.694855 395.002197,325.822174 
	C395.002197,331.424133 395.224915,335.711029 394.936920,339.963318 
	C394.671600,343.880951 396.029327,345.123749 399.995880,345.078583 
	C416.991302,344.884979 433.990143,345.004578 450.987732,344.980835 
	C452.441589,344.978790 453.895081,344.762512 455.998627,344.593597 
	C455.998627,338.391693 455.998627,332.445374 455.998749,325.499451 
M1168.544556,117.911385 
	C1173.715332,110.765030 1176.312134,102.576248 1175.819214,93.973900 
	C1175.212524,83.389053 1170.457520,74.656090 1162.183838,67.472672 
	C1151.706787,58.376232 1136.094727,56.742107 1124.486328,62.350868 
	C1110.063477,69.319366 1102.753296,80.839951 1102.832153,97.441460 
	C1102.911255,114.105835 1118.694336,131.480927 1137.187500,132.071640 
	C1149.813354,132.474930 1159.746826,127.485176 1168.544556,117.911385 
z"/>
<path fill="#1CABB0" opacity="1.000000" stroke="none" 
	d="
M662.157471,212.881393 
	C668.622864,201.765015 675.914734,191.319504 685.696228,182.768845 
	C697.898071,172.102280 711.909424,165.792770 728.066956,163.931396 
	C738.958923,162.676590 749.743530,162.204727 760.494568,164.780563 
	C778.457703,169.084351 785.094360,172.346207 798.744568,183.749054 
	C798.744568,178.507538 798.744568,173.635086 798.744568,168.383575 
	C819.265442,168.383575 839.315613,168.383575 859.893433,168.383575 
	C859.893433,187.523605 859.893433,206.696442 859.893433,225.869278 
	C866.146484,211.227798 875.274719,198.962143 886.945251,188.612289 
	C902.077209,175.192703 919.324524,166.296692 939.761841,163.912170 
	C956.336365,161.978363 972.371643,163.679413 988.602051,167.437561 
	C996.786865,169.332748 1005.772583,167.768494 1014.781860,167.768494 
	C1014.781860,146.021591 1014.781860,124.421471 1014.781860,102.411789 
	C1035.213257,102.411789 1055.262817,102.411789 1075.879517,102.411789 
	C1075.879517,124.017807 1075.879517,145.738998 1075.879517,168.000366 
	C1078.381592,168.000366 1080.328369,168.000351 1082.275269,168.000351 
	C1127.605957,168.000351 1172.937134,168.085739 1218.266846,167.869568 
	C1222.847046,167.847733 1225.037598,169.324677 1226.792114,173.316620 
	C1237.831055,198.434387 1249.039917,223.477615 1260.243164,248.522934 
	C1262.223999,252.951187 1264.441895,257.273315 1266.787598,262.136322 
	C1270.510864,254.120331 1274.147705,246.496445 1277.606934,238.792770 
	C1282.421509,228.070892 1287.051636,217.266205 1291.855713,206.539505 
	C1297.193237,194.621185 1302.556885,182.712463 1308.146484,170.912018 
	C1308.782104,169.570358 1310.942383,168.135437 1312.406494,168.123962 
	C1334.737183,167.949066 1357.069580,168.001770 1379.401611,168.015533 
	C1380.169556,168.016006 1380.937622,168.163712 1382.327148,168.306778 
	C1378.391846,175.825974 1374.753906,182.924210 1370.982178,189.950531 
	C1364.470093,202.081772 1357.857056,214.158691 1351.318115,226.275558 
	C1335.218994,256.107208 1319.111816,285.934631 1303.066406,315.795166 
	C1298.720581,323.882812 1294.481689,332.032043 1290.398071,340.254486 
	C1288.694702,343.684174 1286.656494,345.268707 1282.492432,345.125031 
	C1271.672485,344.751740 1260.829956,344.907501 1249.999390,345.061920 
	C1247.168701,345.102264 1245.544678,344.281464 1244.180786,341.699585 
	C1232.172729,318.970245 1220.046631,296.303009 1207.910400,273.641693 
	C1195.618652,250.689987 1183.277588,227.764664 1170.938965,204.838150 
	C1170.670044,204.338608 1170.169312,203.963806 1169.083374,202.765686 
	C1169.083374,250.629105 1169.083374,297.501526 1169.083374,344.999603 
	C1166.875488,344.999603 1165.106323,345.013733 1163.337280,344.997406 
	C1144.723511,344.825806 1126.104614,344.347168 1107.499390,344.668182 
	C1102.284058,344.758179 1097.173218,347.558350 1091.904053,348.494080 
	C1073.805298,351.708038 1056.192261,350.573883 1039.983887,340.954254 
	C1029.750122,334.880615 1024.096069,325.108185 1019.999756,314.322601 
	C1016.348267,304.708282 1014.850647,294.757263 1014.943298,284.446014 
	C1015.133484,263.282288 1015.000366,242.115646 1015.000305,220.950211 
	C1015.000305,219.150375 1015.000305,217.350540 1015.000305,215.007034 
	C1008.812195,215.007034 1002.957458,214.475143 997.293518,215.282318 
	C995.180359,215.583466 993.512817,219.011185 991.248047,221.434937 
	C978.147522,213.212204 963.277405,211.148544 948.139954,216.250443 
	C938.967773,219.341812 932.164795,226.259842 926.839844,234.578888 
	C918.429810,247.717667 919.638367,269.468201 928.806946,281.459717 
	C943.308594,300.426392 965.828125,304.934570 992.187622,291.150269 
	C999.067505,305.238800 1005.942017,319.316376 1013.303833,334.391907 
	C985.579102,349.477112 956.367798,354.874725 926.117493,346.233582 
	C895.556641,337.503754 873.555420,317.531982 860.121582,286.823761 
	C860.121582,306.868591 860.121582,325.658630 860.121582,344.719940 
	C839.638916,344.719940 819.707886,344.719940 799.150940,344.719940 
	C799.150940,338.784882 799.150940,332.761475 799.150940,326.404816 
	C793.081055,330.880310 787.739197,335.161713 782.057251,338.930450 
	C772.907654,344.999298 762.599670,347.636932 751.760315,349.121399 
	C734.264832,351.517395 717.749084,348.690125 702.079224,340.961151 
	C684.132629,332.109192 671.770264,317.665924 662.314453,299.628296 
	C661.494446,297.154938 661.139282,295.194611 660.459900,293.353973 
	C653.286011,273.918427 651.873474,254.057281 656.341309,233.862442 
	C657.906799,226.786209 660.197754,219.870438 662.157471,212.881393 
M750.413940,216.869934 
	C739.427551,218.451584 730.951416,224.700394 725.437073,233.564163 
	C714.995605,250.347717 716.641663,272.397125 731.155029,286.508392 
	C740.759033,295.846313 753.026855,298.627655 765.920898,296.767212 
	C775.546692,295.378357 784.150452,291.275970 790.511169,283.136932 
	C795.417114,276.859406 798.084412,270.120544 799.206238,262.209717 
	C801.313721,247.348816 796.775452,235.311447 785.876709,225.347809 
	C775.867981,216.197754 763.900879,214.727219 750.413940,216.869934 
M1108.000244,253.500000 
	C1108.000244,240.758881 1108.000244,228.017746 1108.000244,215.404480 
	C1096.918823,215.404480 1086.543701,215.404480 1077.003784,215.404480 
	C1077.003784,237.037552 1076.449829,258.282562 1077.237671,279.477661 
	C1077.631348,290.069733 1082.373291,295.429352 1093.124390,293.841827 
	C1097.042725,293.263184 1100.716431,291.027954 1104.689453,289.475159 
	C1105.554688,291.527557 1106.507446,293.787720 1108.000244,297.329193 
	C1108.000244,282.095428 1108.000244,268.297699 1108.000244,253.500000 
z"/>
<path fill="#545454" opacity="1.000000" stroke="none" 
	d="
M455.998688,325.999268 
	C455.998627,332.445374 455.998627,338.391693 455.998627,344.593597 
	C453.895081,344.762512 452.441589,344.978790 450.987732,344.980835 
	C433.990143,345.004578 416.991302,344.884979 399.995880,345.078583 
	C396.029327,345.123749 394.671600,343.880951 394.936920,339.963318 
	C395.224915,335.711029 395.002197,331.424133 395.002197,325.822174 
	C373.129852,346.694855 348.348969,353.477875 319.898468,348.202057 
	C290.939362,342.831940 272.090057,325.000183 258.154877,299.474426 
	C244.844208,325.214081 225.415283,343.051483 196.356781,348.303192 
	C167.776779,353.468414 142.638947,346.761078 120.993340,324.781189 
	C120.993340,330.957672 120.838203,335.871643 121.047562,340.770081 
	C121.188484,344.067291 119.932205,345.069000 116.713310,345.047516 
	C99.383202,344.931641 82.050903,344.896606 64.721786,345.072296 
	C60.949493,345.110535 59.904575,343.879669 59.933529,340.204620 
	C60.087097,320.708588 60.003662,301.210693 60.003597,281.713440 
	C60.003361,206.390686 60.002705,131.067947 60.005207,55.745201 
	C60.005428,49.013531 60.015476,49.005306 66.772202,49.003494 
	C83.436523,48.999020 100.102516,49.130661 116.764008,48.913731 
	C120.945404,48.859287 122.095337,50.154312 122.081802,54.276421 
	C121.945587,95.770142 121.999779,137.264481 122.000435,178.758652 
	C122.000450,180.079620 122.000443,181.400574 122.000443,183.774673 
	C144.241074,163.869949 169.811142,159.772476 197.374359,164.722733 
	C225.838455,169.834778 244.523758,187.742905 258.121674,213.139175 
	C272.131561,188.325302 290.504578,170.010025 319.171753,164.798676 
	C346.885345,159.760681 372.132324,164.405258 394.859589,183.767914 
	C394.859589,178.253296 394.859589,173.448547 394.859589,168.343536 
	C415.564636,168.343536 435.449219,168.343536 455.998749,168.343536 
	C455.998749,220.954941 455.998749,273.227203 455.998688,325.999268 
M325.990814,285.487244 
	C334.496826,293.370819 344.401093,297.106842 356.143402,297.104919 
	C378.423615,297.101227 395.360718,279.971954 395.987671,257.709534 
	C396.594086,236.174606 380.252350,216.319885 357.135559,215.722458 
	C334.791992,215.144989 316.297302,231.221268 315.037811,253.883942 
	C314.388489,265.567566 317.767975,276.032562 325.990814,285.487244 
M152.948364,216.143417 
	C152.488159,216.334335 152.044510,216.602921 151.565369,216.705032 
	C124.841438,222.400925 114.094345,251.466492 124.470955,274.612427 
	C132.219177,291.895477 149.065399,299.190582 167.644073,296.758026 
	C177.633789,295.450073 186.508362,291.184113 192.847549,282.688141 
	C198.498093,275.115082 201.183548,266.711792 201.296600,257.295898 
	C201.474274,242.500046 195.844910,230.679459 183.675034,222.187592 
	C174.639923,215.883072 164.334641,215.273102 152.948364,216.143417 
z"/>
<path fill="#545454" opacity="1.000000" stroke="none" 
	d="
M662.023682,212.560455 
	C660.197754,219.870438 657.906799,226.786209 656.341309,233.862442 
	C651.873474,254.057281 653.286011,273.918427 660.459900,293.353973 
	C661.139282,295.194611 661.494446,297.154938 662.006592,299.448975 
	C655.955444,308.406860 650.718140,317.732330 643.661987,325.379608 
	C630.717224,339.408905 613.992798,346.570099 595.025635,349.109619 
	C576.629456,351.572662 559.356750,348.613800 543.343567,339.537170 
	C536.994812,335.938599 531.512512,330.811462 525.285583,326.116272 
	C525.285583,331.969147 525.285583,337.986572 525.285583,344.498962 
	C504.770416,344.498962 484.883209,344.498962 464.496704,344.498962 
	C464.496704,246.338959 464.496704,148.012253 464.496704,49.343307 
	C484.885376,49.343307 505.102509,49.343307 525.937622,49.343307 
	C525.937622,93.887512 525.937622,138.108292 525.937622,182.881866 
	C531.631714,179.181335 536.495056,175.669556 541.677307,172.717545 
	C558.330566,163.231140 576.312134,161.656555 595.019470,163.773010 
	C608.659912,165.316223 621.017273,169.825668 632.264771,177.603775 
	C643.327698,185.254272 651.864258,195.137985 658.415649,206.822952 
	C659.462830,208.690659 660.726379,210.437027 662.023682,212.560455 
M557.213684,296.615204 
	C561.529846,296.738831 565.903625,297.363281 570.149536,296.875397 
	C577.582214,296.021332 584.719788,293.927673 590.605774,288.894470 
	C600.957275,280.042755 605.280334,268.930054 605.151428,255.209030 
	C604.905823,229.053650 581.730469,211.253571 555.762085,216.601440 
	C537.257263,220.412262 524.551758,236.284546 524.531799,256.538208 
	C524.510742,277.921265 538.131714,292.611176 557.213684,296.615204 
z"/>
<path fill="#1CABB0" opacity="1.000000" stroke="none" 
	d="
M1168.291260,118.172905 
	C1159.746826,127.485176 1149.813354,132.474930 1137.187500,132.071640 
	C1118.694336,131.480927 1102.911255,114.105835 1102.832153,97.441460 
	C1102.753296,80.839951 1110.063477,69.319366 1124.486328,62.350868 
	C1136.094727,56.742107 1151.706787,58.376232 1162.183838,67.472672 
	C1170.457520,74.656090 1175.212524,83.389053 1175.819214,93.973900 
	C1176.312134,102.576248 1173.715332,110.765030 1168.291260,118.172905 
z"/>
<path fill="none"
	d="
M750.765381,216.625916 
	C763.900879,214.727219 775.867981,216.197754 785.876709,225.347809 
	C796.775452,235.311447 801.313721,247.348816 799.206238,262.209717 
	C798.084412,270.120544 795.417114,276.859406 790.511169,283.136932 
	C784.150452,291.275970 775.546692,295.378357 765.920898,296.767212 
	C753.026855,298.627655 740.759033,295.846313 731.155029,286.508392 
	C716.641663,272.397125 714.995605,250.347717 725.437073,233.564163 
	C730.951416,224.700394 739.427551,218.451584 750.765381,216.625916 
z"/>
<path fill="none"
	d="
M1108.000244,254.000000 
	C1108.000244,268.297699 1108.000244,282.095428 1108.000244,297.329193 
	C1106.507446,293.787720 1105.554688,291.527557 1104.689453,289.475159 
	C1100.716431,291.027954 1097.042725,293.263184 1093.124390,293.841827 
	C1082.373291,295.429352 1077.631348,290.069733 1077.237671,279.477661 
	C1076.449829,258.282562 1077.003784,237.037552 1077.003784,215.404480 
	C1086.543701,215.404480 1096.918823,215.404480 1108.000244,215.404480 
	C1108.000244,228.017746 1108.000244,240.758881 1108.000244,254.000000 
z"/>
<path fill="none"
	d="
M325.735779,285.230927 
	C317.767975,276.032562 314.388489,265.567566 315.037811,253.883942 
	C316.297302,231.221268 334.791992,215.144989 357.135559,215.722458 
	C380.252350,216.319885 396.594086,236.174606 395.987671,257.709534 
	C395.360718,279.971954 378.423615,297.101227 356.143402,297.104919 
	C344.401093,297.106842 334.496826,293.370819 325.735779,285.230927 
z"/>
<path fill="none"
	d="
M153.370636,216.095779 
	C164.334641,215.273102 174.639923,215.883072 183.675034,222.187592 
	C195.844910,230.679459 201.474274,242.500046 201.296600,257.295898 
	C201.183548,266.711792 198.498093,275.115082 192.847549,282.688141 
	C186.508362,291.184113 177.633789,295.450073 167.644073,296.758026 
	C149.065399,299.190582 132.219177,291.895477 124.470955,274.612427 
	C114.094345,251.466492 124.841438,222.400925 151.565369,216.705032 
	C152.044510,216.602921 152.488159,216.334335 153.370636,216.095779 
z"/>
<path fill="none"
	d="
M556.824951,296.413513 
	C538.131714,292.611176 524.510742,277.921265 524.531799,256.538208 
	C524.551758,236.284546 537.257263,220.412262 555.762085,216.601440 
	C581.730469,211.253571 604.905823,229.053650 605.151428,255.209030 
	C605.280334,268.930054 600.957275,280.042755 590.605774,288.894470 
	C584.719788,293.927673 577.582214,296.021332 570.149536,296.875397 
	C565.903625,297.363281 561.529846,296.738831 556.824951,296.413513 
z"/>
</svg>