<svg viewBox="0 0 640 640" xmlns="http://www.w3.org/2000/svg">
<path d="m96 128c0-35.3 28.7-64 64-64s64 28.7 64 64-28.7 64-64 64-64-28.7-64-64zm-32 160c0-35.3 28.7-64 64-64h64c3.2 0 6.4 0.2 9.5 0.7l-44.4 44.4c-28.1 28.1-28.1 73.7 0 101.8l56 56c3.4 3.4 7 6.4 10.9 9v92.1c0 26.5-21.5 48-48 48h-32c-26.5 0-48-21.5-48-48v-120.6c-19.1-11-32-31.7-32-55.4v-64zm352-160c0-35.3 28.7-64 64-64s64 28.7 64 64-28.7 64-64 64-64-28.7-64-64zm66.9 141.1-44.4-44.4c3.1-0.5 6.3-0.7 9.5-0.7h64c35.3 0 64 28.7 64 64v64c0 23.7-12.9 44.4-32 55.4v120.6c0 26.5-21.5 48-48 48h-32c-26.5 0-48-21.5-48-48v-92.1c3.9-2.6 7.5-5.6 10.9-9l56-56c28.1-28.1 28.1-73.7 0-101.8zm-116.1-27.3c9-3.7 19.3-1.7 26.2 5.2l56 56c9.4 9.4 9.4 24.6 0 33.9l-56 56c-6.9 6.9-17.2 8.9-26.2 5.2s-14.8-12.4-14.8-22.1v-24h-64v24c0 9.7-5.8 18.5-14.8 22.2s-19.3 1.7-26.2-5.2l-56-56c-9.4-9.4-9.4-24.6 0-33.9l56-56c6.9-6.9 17.2-8.9 26.2-5.2s14.8 12.4 14.8 22.1v24h64v-24c0-9.7 5.8-18.5 14.8-22.2z" fill="#111827"/>
</svg>
