<svg viewBox="0 0 640 640" xmlns="http://www.w3.org/2000/svg">
<path d="m241.1 580.2c-18.7 18.7-49.1 18.7-67.9 0l-113.1-113.1c-18.7-18.7-18.7-49.1 0-67.9l17-17 73.5 73.5c9.4 9.4 24.6 9.4 33.9 0s9.4-24.6 0-33.9l-73.5-73.5 33.9-33.9 50.9 50.9c9.4 9.4 24.6 9.4 33.9 0s9.4-24.6 0-33.9l-50.9-50.9 33.9-33.9 73.5 73.5c9.4 9.4 24.6 9.4 33.9 0s9.4-24.6 0-33.9l-73.5-73.5 33.9-33.9 50.9 50.9c9.4 9.4 24.6 9.4 33.9 0s9.4-24.6 0-33.9l-50.9-50.9 33.9-33.9 73.5 73.5c9.4 9.4 24.6 9.4 33.9 0s9.4-24.6 0-33.9l-73.5-73.5 17-17c18.7-18.7 49.1-18.7 67.9 0l113.4 112.8c18.7 18.7 18.7 49.1 0 67.9l-339.4 339.4z" fill="#111827"/>
</svg>
