<svg viewBox="0 0 640 640" xmlns="http://www.w3.org/2000/svg">
<path d="m96 192c0-61.9 50.1-112 112-112s112 50.1 112 112-50.1 112-112 112-112-50.1-112-112zm-64 336c0-97.2 78.8-176 176-176s176 78.8 176 176v6c0 23.2-18.8 42-42 42h-268c-23.2 0-42-18.8-42-42v-6zm432-400c53 0 96 43 96 96s-43 96-96 96-96-43-96-96 43-96 96-96zm0 240c79.5 0 144 64.5 144 144v22.4c0 23-18.6 41.6-41.6 41.6h-144.8c6.6-12.5 10.4-26.8 10.4-42v-6c0-51.5-17.4-98.9-46.5-136.7 22.6-14.7 49.6-23.3 78.5-23.3z" fill="#111827"/>
</svg>
